<?xml version="1.0" standalone="no"?>
<!DOCTYPE svg PUBLIC "-//W3C//DTD SVG 20010904//EN"
 "http://www.w3.org/TR/2001/REC-SVG-20010904/DTD/svg10.dtd">
<svg version="1.0" xmlns="http://www.w3.org/2000/svg"
 width="500.000000pt" height="500.000000pt" viewBox="0 0 500.000000 500.000000"
 preserveAspectRatio="xMidYMid meet">
<metadata>
Created by potrace 1.11, written by Peter Selinger 2001-2013
</metadata>
<g transform="translate(0.000000,500.000000) scale(0.100000,-0.100000)"
fill="#000000" stroke="none">
<path d="M0 2500 l0 -2500 2500 0 2500 0 0 2500 0 2500 -2500 0 -2500 0 0
-2500z m2444 1610 c31 -10 70 -29 86 -40 55 -39 36 -108 -68 -246 -67 -89
-241 -264 -342 -345 -192 -153 -390 -252 -471 -234 -36 8 -85 64 -98 112 -15
53 -14 171 2 224 66 215 292 437 530 520 71 25 97 29 193 29 84 0 124 -5 168
-20z m218 -206 c49 -83 39 -261 -20 -386 -90 -188 -300 -372 -496 -434 -106
-33 -228 -35 -307 -5 -62 24 -113 70 -107 98 2 12 54 44 162 98 87 44 194 106
237 138 102 77 263 244 373 387 120 156 126 160 158 104z m193 -189 c145 -31
290 -120 421 -257 133 -141 184 -259 184 -427 0 -111 -22 -191 -53 -191 -17 0
-65 50 -124 131 -71 98 -208 252 -277 312 -97 84 -135 111 -234 168 -67 38
-92 57 -89 68 17 60 37 142 42 174 7 44 18 46 130 22z m-99 -316 c306 -209
574 -504 574 -634 0 -43 -30 -65 -133 -96 -98 -31 -262 -24 -362 15 -112 43
-212 111 -315 216 -83 84 -170 204 -170 235 0 5 23 26 51 45 62 42 166 151
215 225 20 30 40 55 44 55 3 0 46 -27 96 -61z m1112 -1061 l3 -38 -1370 0
-1371 0 0 33 c0 19 3 37 7 40 3 4 619 6 1367 5 l1361 -3 3 -37z m-1103 -380
l80 -23 3 -107 3 -108 -28 0 c-43 0 -51 11 -58 77 l-7 62 -57 13 c-195 43
-338 -15 -407 -166 -25 -53 -28 -73 -29 -156 0 -67 5 -111 18 -147 22 -64 92
-144 150 -172 95 -46 228 -36 318 25 28 19 54 34 58 34 4 0 20 -13 35 -28 l27
-29 -33 -32 c-70 -68 -198 -108 -318 -98 -249 21 -413 247 -372 515 46 294
298 433 617 340z m-1058 9 c73 -19 119 -54 148 -111 54 -108 17 -224 -89 -278
l-40 -20 49 -19 c97 -37 145 -117 130 -216 -13 -87 -55 -139 -145 -182 -54
-25 -60 -26 -302 -29 l-248 -4 0 36 c0 33 3 36 40 46 l40 11 0 345 c0 267 -3
345 -12 348 -7 3 -25 7 -40 10 -24 6 -28 11 -28 41 l0 35 223 0 c154 0 239 -4
274 -13z m1900 0 c73 -19 119 -54 148 -111 54 -108 17 -224 -89 -278 l-40 -20
49 -19 c97 -37 145 -117 130 -216 -13 -87 -55 -139 -145 -182 -54 -25 -60 -26
-302 -29 l-248 -4 0 36 c0 33 3 36 40 46 l40 11 0 345 c0 267 -3 345 -12 348
-7 3 -25 7 -40 10 -24 6 -28 11 -28 41 l0 35 223 0 c154 0 239 -4 274 -13z
m261 -1159 l3 -38 -1370 0 -1371 0 0 33 c0 19 3 37 7 40 3 4 619 6 1367 5
l1361 -3 3 -37z"/>
<path d="M1410 1740 l0 -152 123 4 c137 5 175 18 207 71 28 45 27 125 -1 161
-38 48 -74 59 -206 64 l-123 4 0 -152z"/>
<path d="M1415 1498 c-3 -8 -4 -77 -3 -153 l3 -140 130 0 c111 0 136 3 169 21
48 25 76 74 76 134 0 58 -27 101 -76 125 -53 25 -291 36 -299 13z"/>
<path d="M3310 1740 l0 -152 123 4 c137 5 175 18 207 71 28 45 27 125 -1 161
-38 48 -74 59 -206 64 l-123 4 0 -152z"/>
<path d="M3315 1498 c-3 -8 -4 -77 -3 -153 l3 -140 130 0 c111 0 136 3 169 21
48 25 76 74 76 134 0 58 -27 101 -76 125 -53 25 -291 36 -299 13z"/>
</g>
</svg>
