<?xml version="1.0" encoding="UTF-8" standalone="no"?>
<svg xmlns="http://www.w3.org/2000/svg" xmlns:xlink="http://www.w3.org/1999/xlink" width="46px" height="24px" viewBox="0 0 46 24">
  <!-- Generator: Sketch 3.7.2 (28276) - http://www.bohemiancoding.com/sketch -->
  <title>iDE Logo</title>
  <desc>Created with Sketch.</desc>
  <defs></defs>
  <g id="-Document-Symbols" stroke="none" stroke-width="1" fill="none" fill-rule="evenodd">
    <g id="header-bug" transform="translate(-25.000000, -28.000000)">
      <g id="iDE-Logo">
        <g transform="translate(25.000000, 28.000000)">
          <path d="M31.5784753,21.0605308 C31.5784753,22.7955784 32.9026105,23.7637315 34.3284776,23.7637315 L42.9526671,23.7637315 C44.6845827,23.7637315 45.7032664,22.7625523 45.7032664,21.2606996 C45.7032664,19.692124 44.6845827,18.7575839 42.9526671,18.7575839 L37.0790769,18.7575839 L37.0790769,14.3181621 L42.2739711,14.3181621 C44.0053751,14.3181621 45.0239734,13.3505958 45.0239734,11.8151302 C45.0239734,10.2796647 44.0053751,9.31209836 42.2739711,9.31209836 L37.0790769,9.31209836 L37.0790769,5.00662536 L42.7490327,5.00662536 C44.4811189,5.00662536 45.499632,4.07216907 45.499632,2.50359349 C45.499632,1.0012379 44.4811189,-2.51468328e-05 42.7490327,-2.51468328e-05 L34.3284776,-2.51468328e-05 C32.9026105,-2.51468328e-05 31.5784753,0.968127901 31.5784753,2.70367845 L31.5784753,21.0605308 Z M14.2632414,5.00670919 L14.2632414,18.7575839 L17.1831949,18.7575839 C21.4611374,18.7575839 23.6351137,15.8537115 23.6351137,11.7153811 C23.6351137,7.70990985 21.4274542,5.00670919 17.4210242,5.00670919 L14.2632414,5.00670919 Z M8.76272509,21.0606146 L8.76272509,2.70376227 C8.76272509,0.968127901 10.0869456,5.86759415e-05 11.5127274,5.86759415e-05 L18.099635,5.86759415e-05 C25.2981279,5.86759415e-05 29.3723507,5.60713172 29.3723507,11.7153811 C29.3723507,19.4914523 24.0759804,23.7637315 18.099635,23.7637315 L11.5127274,23.7637315 C10.0869456,23.7637315 8.76272509,22.7955784 8.76272509,21.0606146 L8.76272509,21.0606146 Z" id="Fill-1" fill="#4f505f"></path>
          <path d="M0.552754212,20.9554254 C0.552754212,22.5171276 1.68246462,23.7662545 3.30608224,23.7662545 C4.93038206,23.7662545 6.06000719,22.5171276 6.06000719,20.9554254 L6.06000719,10.8695339 C6.06000719,9.30783178 4.93038206,8.0587048 3.30608224,8.0587048 C1.68246462,8.0587048 0.552754212,9.30783178 0.552754212,10.8695339 L0.552754212,20.9554254 Z M0.0232024567,3.23453647 C0.0232024567,1.42983213 1.50577682,0.00694052575 3.30616752,0.00694052575 C5.10706986,0.00694052575 6.58955895,1.42983213 6.58955895,3.23453647 C6.58955895,5.03924081 5.10706986,6.46213241 3.30616752,6.46213241 C1.50577682,6.46213241 0.0232024567,5.03924081 0.0232024567,3.23453647 L0.0232024567,3.23453647 Z" id="Fill-4" fill="#4f505f"></path>
        </g>
      </g>
    </g>
  </g>
</svg>
